<svg width="54" height="45" viewBox="0 0 54 45" fill="none" xmlns="http://www.w3.org/2000/svg">
<path d="M48.7741 1.13673C48.7741 1.13673 53.6308 -0.757024 53.226 3.84209C53.0911 5.73586 51.877 12.364 50.9326 19.5332L47.6949 40.7704C47.6949 40.7704 47.4251 43.8815 44.9968 44.4226C42.5684 44.9636 38.926 42.5289 38.2514 41.9877C37.7118 41.582 28.1335 35.4949 24.7608 32.519C23.8164 31.7074 22.7371 30.0841 24.8956 28.1904L39.0609 14.6636C40.6798 13.0404 42.2986 9.25286 35.5533 13.852L16.6664 26.7025C16.6664 26.7025 14.5079 28.0551 10.4608 26.8377L1.69178 24.1324C1.69178 24.1324 -1.54599 22.1034 3.98519 20.0742C17.4759 13.7166 34.0694 7.22374 48.7741 1.13673Z" fill="white"/>
</svg>