<svg width="65" height="38" viewBox="0 0 65 38" fill="none" xmlns="http://www.w3.org/2000/svg">
<path d="M64.4207 33.3125C64.246 33.0244 63.1653 30.7123 57.9649 25.9599C52.5207 20.9835 53.252 21.7916 59.8094 13.187C63.8031 7.94657 65.3998 4.74634 64.9001 3.37823C64.4247 2.07414 61.4873 2.41816 61.4873 2.41816L51.7204 2.47417C51.7204 2.47417 50.9972 2.37816 50.4568 2.69418C49.9327 3.00621 49.5955 3.72626 49.5955 3.72626C49.5955 3.72626 48.0476 7.78256 45.9837 11.2308C41.6324 18.5074 39.8895 18.8914 39.1785 18.4394C37.5249 17.3873 37.9393 14.207 37.9393 11.9509C37.9393 4.89835 39.0241 1.95813 35.8226 1.19807C34.7582 0.946053 33.9781 0.778041 31.2601 0.750039C27.7742 0.714036 24.8206 0.76204 23.1507 1.5661C22.0375 2.10214 21.1803 3.29823 21.7044 3.36623C22.3504 3.45024 23.813 3.75426 24.589 4.79434C25.5925 6.13444 25.5559 9.15066 25.5559 9.15066C25.5559 9.15066 26.1328 17.4513 24.2111 18.4834C22.8907 19.1914 21.0828 17.7473 17.2028 11.1428C15.2161 7.76256 13.7129 4.02228 13.7129 4.02228C13.7129 4.02228 13.4244 3.32623 12.9084 2.9542C12.2828 2.50217 11.4052 2.35816 11.4052 2.35816L2.11763 2.41416C2.11763 2.41416 0.724086 2.45417 0.212173 3.05021C-0.242861 3.58225 0.175607 4.67833 0.175607 4.67833C0.175607 4.67833 7.44802 21.4276 15.6793 29.8722C23.232 37.6128 31.8045 37.1047 31.8045 37.1047H35.6886C35.6886 37.1047 36.8627 36.9767 37.4599 36.3407C38.0125 35.7566 37.9922 34.6606 37.9922 34.6606C37.9922 34.6606 37.915 29.5282 40.3364 28.7721C42.7213 28.0281 45.7846 33.7325 49.0308 35.9286C51.4847 37.5888 53.3495 37.2247 53.3495 37.2247L62.0318 37.1047C62.0318 37.1047 66.574 36.8287 64.4207 33.3125Z" fill="white"/>
</svg>