<svg width="72" height="72" viewBox="0 0 72 72" fill="none" xmlns="http://www.w3.org/2000/svg">
<path d="M41.7601 7.19995H30.2401C19.1521 7.19995 10.0801 16.272 10.0801 27.36V36C10.0801 43.776 14.6161 50.904 21.6001 54.216V63.864C21.6001 64.728 22.6801 65.16 23.2561 64.512L31.6081 56.16H41.7601C52.8481 56.16 61.9201 47.088 61.9201 36V27.36C61.9201 16.272 52.8481 7.19995 41.7601 7.19995ZM49.3201 45L46.3681 47.88C43.2721 50.904 35.2801 47.448 28.2241 40.248C21.1681 33.048 18.0721 24.984 21.0241 21.96L23.9041 19.08C24.9841 18 26.7841 18.072 28.0081 19.152L32.1841 23.472C33.6961 24.984 33.0481 27.576 31.1041 28.152C29.7361 28.584 28.8001 30.096 29.2321 31.464C29.9521 34.632 33.9841 38.664 37.0081 39.456C38.3761 39.744 39.8881 39.024 40.3921 37.656C41.0401 35.712 43.6321 35.136 45.0721 36.648L49.2481 40.968C50.4001 41.976 50.4001 43.776 49.3201 45ZM38.5921 20.88C38.3041 20.88 38.0161 20.88 37.7281 20.952C37.2241 21.024 36.7201 20.592 36.6481 20.088C36.5761 19.584 37.0081 19.08 37.5121 19.008C37.8721 18.936 38.2321 18.936 38.5921 18.936C43.8481 18.936 48.1681 23.256 48.1681 28.512C48.1681 28.872 48.1681 29.232 48.0961 29.592C48.0241 30.096 47.5201 30.528 47.0161 30.456C46.5121 30.384 46.0801 29.88 46.1521 29.376C46.1521 29.088 46.2241 28.8 46.2241 28.512C46.2961 24.336 42.8401 20.88 38.5921 20.88ZM44.3521 28.584C44.3521 29.088 43.9201 29.52 43.4161 29.52C42.9121 29.52 42.4801 29.088 42.4801 28.584C42.4801 26.496 40.7521 24.768 38.6641 24.768C38.1601 24.768 37.7281 24.336 37.7281 23.832C37.7281 23.328 38.1601 22.896 38.6641 22.896C41.7601 22.824 44.3521 25.416 44.3521 28.584ZM51.6961 31.68C51.5521 32.184 51.0481 32.544 50.4721 32.4C49.9681 32.256 49.6801 31.752 49.8241 31.248C50.0401 30.384 50.1121 29.52 50.1121 28.584C50.1121 22.248 44.9281 17.064 38.5921 17.064C38.3041 17.064 38.0161 17.064 37.7281 17.064C37.2241 17.064 36.7201 16.704 36.7201 16.2C36.7201 15.696 37.0801 15.192 37.5841 15.192C37.9441 15.192 38.3041 15.12 38.5921 15.12C46.0081 15.12 52.0561 21.168 52.0561 28.584C52.0561 29.592 51.9121 30.672 51.6961 31.68Z" fill="white"/>
</svg>