<svg width="61" height="44" viewBox="0 0 61 44" fill="none" xmlns="http://www.w3.org/2000/svg">
<path d="M57.5208 4.98683C55.911 1.98791 54.1639 1.43629 50.6068 1.22653C47.0533 0.974025 38.1176 0.869141 30.3764 0.869141C22.6203 0.869141 13.681 0.974026 10.1312 1.22264C6.58143 1.43629 4.83066 1.98403 3.206 4.98683C1.54796 7.98187 0.694824 13.1406 0.694824 22.2229C0.694824 22.2306 0.694824 22.2345 0.694824 22.2345C0.694824 22.2423 0.694824 22.2462 0.694824 22.2462V22.254C0.694824 31.2973 1.54796 36.495 3.206 39.4589C4.83066 42.4578 6.57772 43.0017 10.1275 43.2542C13.681 43.4717 22.6203 43.5999 30.3764 43.5999C38.1176 43.5999 47.0533 43.4717 50.6105 43.2581C54.1676 43.0056 55.9147 42.4617 57.5245 39.4628C59.1974 36.4988 60.0431 31.3012 60.0431 22.2578C60.0431 22.2578 60.0431 22.2462 60.0431 22.2384C60.0431 22.2384 60.0431 22.2306 60.0431 22.2268C60.0431 13.1406 59.1974 7.98187 57.5208 4.98683ZM22.9504 33.8884V10.5807L41.4968 22.2345L22.9504 33.8884Z" fill="white"/>
</svg>