<svg width="22" height="28" viewBox="0 0 22 28" fill="none" xmlns="http://www.w3.org/2000/svg">
<path d="M11.0007 0C5.29572 0 0.654297 4.64133 0.654297 10.3464C0.654297 15.8698 10.0866 27.2767 10.4881 27.7596C10.6147 27.9118 10.8026 28 11.0007 28C11.1987 28 11.3867 27.9119 11.5133 27.7596C11.9149 27.2766 21.3471 15.8698 21.3471 10.3464C21.3471 4.64133 16.7058 0 11.0007 0ZM11.0007 26.2754C10.1643 25.231 8.42665 23.006 6.7071 20.4623C3.61963 15.8953 1.98763 12.3972 1.98763 10.3464C1.98763 5.37653 6.03092 1.33333 11.0007 1.33333C15.9705 1.33333 20.0138 5.37653 20.0138 10.3464C20.0138 12.3972 18.3818 15.8952 15.2943 20.4623C13.5746 23.006 11.8371 25.231 11.0007 26.2754Z" fill="#00A8DE"/>
<path d="M14.3924 19.0181C14.0874 18.812 13.6729 18.8923 13.4668 19.1974C12.5672 20.5291 11.5594 21.9249 10.4714 23.3458C10.2476 23.6382 10.303 24.0566 10.5954 24.2804C10.7163 24.373 10.8588 24.4178 11.0002 24.4178C11.2005 24.4178 11.3988 24.3278 11.5299 24.1564C12.6339 22.7146 13.6573 21.2973 14.5716 19.9438C14.7778 19.6387 14.6976 19.2242 14.3924 19.0181Z" fill="#00A8DE"/>
<path d="M11.0018 5.11133C7.98751 5.11133 5.53516 7.56368 5.53516 10.578C5.53516 13.5923 7.98751 16.0447 11.0018 16.0447C14.0161 16.0447 16.4685 13.5923 16.4685 10.578C16.4685 7.56368 14.0161 5.11133 11.0018 5.11133ZM11.0018 14.7113C8.72271 14.7113 6.86849 12.8571 6.86849 10.578C6.86849 8.29888 8.72271 6.44466 11.0018 6.44466C13.281 6.44466 15.1352 8.29888 15.1352 10.578C15.1352 12.8571 13.281 14.7113 11.0018 14.7113Z" fill="#00A8DE"/>
</svg>
