<svg width="28" height="28" viewBox="0 0 28 28" fill="none" xmlns="http://www.w3.org/2000/svg">
<path d="M27.5332 17.7291C25.8112 17.7291 24.4099 16.3278 24.4099 14.6058C24.4099 14.3478 24.2013 14.1392 23.9432 14.1392C23.6852 14.1392 23.4766 14.3478 23.4766 14.6058C23.4766 16.8429 25.296 18.6624 27.5332 18.6624C27.7912 18.6624 27.9998 18.4538 27.9998 18.1958C27.9998 17.9377 27.7907 17.7291 27.5332 17.7291Z" fill="#00A8DE"/>
<path d="M27.1862 16.6362C27.4442 16.6362 27.6528 16.4276 27.6528 16.1696C27.6528 15.9115 27.4442 15.7029 27.1862 15.7029C26.7727 15.7029 26.4372 15.3669 26.4372 14.954C26.4372 14.6959 26.2286 14.4873 25.9706 14.4873C25.7125 14.4873 25.5039 14.6959 25.5039 14.954C25.5034 15.8817 26.258 16.6362 27.1862 16.6362Z" fill="#00A8DE"/>
<path d="M9.33384 1.39619C11.0562 1.39619 12.4571 2.79755 12.4571 4.51949C12.4571 4.77755 12.6662 4.98614 12.9238 4.98614C13.1814 4.98614 13.3904 4.77755 13.3904 4.51949C13.3904 2.28236 11.5705 0.462891 9.33384 0.462891C9.07625 0.462891 8.86719 0.671484 8.86719 0.929542C8.86719 1.1876 9.07578 1.39619 9.33384 1.39619Z" fill="#00A8DE"/>
<path d="M9.21484 2.95591C9.21484 3.21397 9.4239 3.42256 9.68149 3.42256C10.0945 3.42256 10.43 3.75855 10.43 4.17153C10.43 4.42959 10.6391 4.63819 10.8967 4.63819C11.1542 4.63819 11.3633 4.42959 11.3633 4.17153C11.3633 3.24383 10.6087 2.48926 9.68149 2.48926C9.4239 2.48926 9.21484 2.69785 9.21484 2.95591Z" fill="#00A8DE"/>
<path d="M20.5683 17.681C19.9729 17.3413 19.3564 17.2339 18.8319 17.3795C18.438 17.4887 18.117 17.7379 17.9005 18.101C17.4245 18.6703 16.8337 19.3357 16.6909 19.4389C15.5863 20.1874 14.7076 20.0992 13.7538 19.1453L8.39384 13.7859C7.43954 12.8316 7.35181 11.9528 8.09938 10.8502C8.20391 10.7055 8.86936 10.1152 9.43867 9.63873C9.80172 9.4222 10.0509 9.10114 10.1601 8.70729C10.3052 8.18324 10.1984 7.5668 9.85586 6.96622C9.77513 6.82809 7.85346 3.57366 6.08298 2.63709C5.18421 2.16157 4.09738 2.3249 3.37827 3.04401L2.19344 4.22744C0.320307 6.10058 -0.357737 8.22337 0.177045 10.5366C0.623164 12.4648 1.92325 14.5166 4.04185 16.6348L10.904 23.4973C13.5928 26.1862 16.1575 27.5367 18.5094 27.5367C20.2365 27.5367 21.8493 26.8078 23.3117 25.3457L24.4956 24.1618C25.2147 23.4427 25.3785 22.3559 24.9026 21.4571C23.9655 19.6862 20.7116 17.765 20.5683 17.681ZM23.8358 23.502L22.6519 24.6859C19.5865 27.7504 15.8561 27.1288 11.5643 22.8375L4.70169 15.9749C2.70863 13.9818 1.49253 12.0812 1.08655 10.3266C0.62223 8.3195 1.20041 6.5411 2.85329 4.88775L4.03718 3.70386C4.30177 3.43973 4.6499 3.3016 5.00315 3.3016C5.22108 3.3016 5.44134 3.35387 5.64526 3.46213C7.18194 4.2755 9.03128 7.4072 9.04715 7.4338C9.25668 7.80105 9.33647 8.18417 9.26041 8.45857C9.21374 8.62656 9.10921 8.75442 8.94122 8.84869L8.87122 8.89722C8.47317 9.22947 7.52587 10.033 7.32754 10.3256C7.04195 10.7475 6.85249 11.1619 6.75309 11.5693C6.4213 10.9076 6.15298 10.1413 6.06478 9.29154C6.03818 9.03581 5.80859 8.85522 5.5524 8.87528C5.29621 8.90235 5.10955 9.13148 5.13615 9.38813C5.47307 12.6328 7.99625 14.7448 8.10358 14.833C8.11525 14.8424 8.12878 14.8461 8.14091 14.854L13.0935 19.8066C13.1145 19.8276 13.1364 19.8463 13.1574 19.8668C13.1737 19.8906 13.1845 19.9172 13.2059 19.9387C13.2941 20.0259 15.4011 22.0698 18.6186 22.404C18.635 22.4054 18.6513 22.4063 18.6672 22.4063C18.9033 22.4063 19.1058 22.2276 19.131 21.9882C19.1576 21.7315 18.9714 21.5024 18.7148 21.4753C17.7283 21.3731 16.8542 21.0838 16.1258 20.7483C16.4828 20.641 16.8458 20.4627 17.214 20.2135C17.5071 20.0147 18.3106 19.0679 18.6424 18.6698L18.691 18.5994C18.7852 18.4318 18.9131 18.3273 19.0811 18.2802C19.3555 18.206 19.7386 18.2839 20.1012 18.4902C20.1324 18.5088 23.2641 20.3582 24.0775 21.8949C24.3603 22.4282 24.2632 23.0745 23.8358 23.502Z" fill="#00A8DE"/>
</svg>