<svg width="25" height="25" viewBox="0 0 25 25" fill="none" xmlns="http://www.w3.org/2000/svg">
<path d="M12.5 0C5.6075 0 0 5.6075 0 12.5C0 19.3925 5.6075 25 12.5 25C19.3925 25 25 19.3925 25 12.5C25 5.6075 19.3925 0 12.5 0ZM12.5 24.1667C6.06708 24.1667 0.833333 18.9329 0.833333 12.5C0.833333 6.06708 6.06708 0.833333 12.5 0.833333C18.9329 0.833333 24.1667 6.06708 24.1667 12.5C24.1667 18.9329 18.9329 24.1667 12.5 24.1667Z" fill="#00A8DE"/>
<path d="M12.4993 2.5C12.2693 2.5 12.0827 2.68625 12.0827 2.91667V12.5H5.83268C5.60268 12.5 5.41602 12.6863 5.41602 12.9167C5.41602 13.1471 5.60268 13.3333 5.83268 13.3333H12.4993C12.7293 13.3333 12.916 13.1471 12.916 12.9167V2.91667C12.916 2.68625 12.7293 2.5 12.4993 2.5Z" fill="#00A8DE"/>
</svg>
