<svg width="38" height="38" viewBox="0 0 38 38" fill="none" xmlns="http://www.w3.org/2000/svg">
<g clip-path="url(#clip0_254_369)">
<path d="M19 0C8.51878 0 0 8.51878 0 19C0 29.4812 8.51878 38 19 38C29.4812 38 38 29.4812 38 19C38 8.51878 29.4812 0 19 0ZM19 36.0822C9.5892 36.0822 1.91784 28.4108 1.91784 19C1.91784 9.5892 9.5892 1.91784 19 1.91784C28.4108 1.91784 36.0822 9.5892 36.0822 19C36.0822 28.4108 28.4108 36.0822 19 36.0822Z" fill="#507998"/>
<path d="M20.3371 18.9107L25.9122 13.3356C26.2691 12.9788 26.2691 12.3544 25.9122 11.9976C25.5554 11.6408 24.931 11.6408 24.5742 11.9976L18.9991 17.5727L13.424 11.9976C13.0672 11.6408 12.4428 11.6408 12.086 11.9976C11.7292 12.3544 11.7292 12.9788 12.086 13.3356L17.6611 18.9107L12.086 24.4412C11.7292 24.7981 11.7292 25.4225 12.086 25.7793C12.2644 25.9577 12.532 26.0469 12.755 26.0469C12.978 26.0469 13.2456 25.9577 13.424 25.7793L18.9991 20.2042L24.5742 25.7793C24.7526 25.9577 25.0202 26.0469 25.2432 26.0469C25.4662 26.0469 25.7338 25.9577 25.9122 25.7793C26.2691 25.4225 26.2691 24.7981 25.9122 24.4412L20.3371 18.9107Z" fill="#507998"/>
</g>
<defs>
<clipPath id="clip0_254_369">
<rect width="38" height="38" fill="white"/>
</clipPath>
</defs>
</svg>
