<svg width="68" height="69" viewBox="0 0 68 69" fill="none" xmlns="http://www.w3.org/2000/svg">
<path d="M60.9449 32.4907H60.4814C59.9196 18.3342 48.2308 6.99072 33.9402 6.99072C19.6495 6.99072 7.96071 18.3342 7.39892 32.4907H7.05493C6.4209 32.4907 5.81283 32.7426 5.3645 33.1909C4.91618 33.6393 4.66431 34.2473 4.66431 34.8814V49.2251C4.66431 49.8591 4.91618 50.4672 5.3645 50.9155C5.81283 51.3639 6.4209 51.6157 7.05493 51.6157H10.2703C10.5351 53.9523 11.6501 56.1099 13.403 57.6773C15.1559 59.2448 17.4242 60.1127 19.7757 60.1157H27.2132V60.9458C27.2132 61.2276 27.3252 61.4979 27.5244 61.6971C27.7237 61.8964 27.9939 62.0083 28.2757 62.0083H33.9428C34.2246 62.0083 34.4949 61.8964 34.6941 61.6971C34.8934 61.4979 35.0053 61.2276 35.0053 60.9458V57.158C35.0053 56.8762 34.8934 56.6059 34.6941 56.4067C34.4949 56.2074 34.2246 56.0955 33.9428 56.0955H28.2731C27.9913 56.0955 27.721 56.2074 27.5218 56.4067C27.3225 56.6059 27.2106 56.8762 27.2106 57.158V57.9921H19.7731C17.9848 57.9901 16.2569 57.345 14.9049 56.1746C13.5528 55.0042 12.6668 53.3866 12.4086 51.6171H15.7289C16.0429 51.6171 16.3537 51.5552 16.6438 51.4351C16.9338 51.3149 17.1974 51.1388 17.4193 50.9169C17.6413 50.6949 17.8174 50.4313 17.9376 50.1413C18.0577 49.8512 18.1195 49.5404 18.1195 49.2264V34.8827C18.1195 34.2486 17.8677 33.6406 17.4193 33.1923C16.971 32.7439 16.3629 32.4921 15.7289 32.4921H15.1977C15.7528 22.6347 23.946 14.7842 33.9402 14.7842C43.9343 14.7842 52.1355 22.6347 52.6827 32.4934H52.2683C51.6343 32.4934 51.0262 32.7453 50.5779 33.1936C50.1295 33.6419 49.8777 34.25 49.8777 34.884V49.2278C49.8777 49.8618 50.1295 50.4699 50.5779 50.9182C51.0262 51.3665 51.6343 51.6184 52.2683 51.6184H60.9449C61.579 51.6184 62.187 51.3665 62.6354 50.9182C63.0837 50.4699 63.3356 49.8618 63.3356 49.2278V34.884C63.3359 34.5698 63.2743 34.2587 63.1543 33.9683C63.0344 33.678 62.8583 33.4141 62.6363 33.1919C62.4143 32.9696 62.1506 32.7933 61.8604 32.673C61.5702 32.5526 61.2591 32.4907 60.9449 32.4907ZM29.3356 58.2205H32.8777V59.8846H29.3356V58.2205ZM15.9972 34.88V49.2238C15.9972 49.2942 15.9692 49.3618 15.9194 49.4116C15.8696 49.4614 15.802 49.4894 15.7316 49.4894H7.05493C6.98448 49.4894 6.91692 49.4614 6.86711 49.4116C6.81729 49.3618 6.78931 49.2942 6.78931 49.2238V34.88C6.78931 34.8096 6.81729 34.742 6.86711 34.6922C6.91692 34.6424 6.98448 34.6144 7.05493 34.6144H15.7316C15.802 34.6144 15.8696 34.6424 15.9194 34.6922C15.9692 34.742 15.9972 34.8096 15.9972 34.88ZM33.9402 12.6565C22.7746 12.6565 13.6199 21.4593 13.0687 32.4894H9.52657C10.0857 19.5056 20.8223 9.11439 33.9402 9.11439C47.0581 9.11439 57.7946 19.5056 58.3538 32.4894H54.8117C54.2552 21.4593 45.1057 12.6565 33.9402 12.6565ZM61.2106 49.2251C61.2106 49.2956 61.1826 49.3631 61.1328 49.4129C61.0829 49.4627 61.0154 49.4907 60.9449 49.4907H52.2683C52.1978 49.4907 52.1303 49.4627 52.0805 49.4129C52.0307 49.3631 52.0027 49.2956 52.0027 49.2251V34.8814C52.0027 34.8109 52.0307 34.7433 52.0805 34.6935C52.1303 34.6437 52.1978 34.6157 52.2683 34.6157H60.9449C61.0154 34.6157 61.0829 34.6437 61.1328 34.6935C61.1826 34.7433 61.2106 34.8109 61.2106 34.8814V49.2251Z" fill="#00A8DE"/>
</svg>
