<svg width="81" height="80" viewBox="0 0 81 80" fill="none" xmlns="http://www.w3.org/2000/svg">
<g clip-path="url(#clip0_26_589)">
<path d="M9.1993 32.4487H5.191C4.48428 32.4487 3.91162 33.0215 3.91162 33.7281C3.91162 34.4347 4.48428 35.0075 5.191 35.0075H9.1993C9.90602 35.0075 10.4787 34.4347 10.4787 33.7281C10.4787 33.0215 9.90602 32.4487 9.1993 32.4487Z" fill="#00A8DE"/>
<path d="M16.0229 46.9478H6.89706C6.19033 46.9478 5.61768 47.5206 5.61768 48.2271C5.61768 48.9337 6.19033 49.5065 6.89706 49.5065H16.023C16.7298 49.5065 17.3024 48.9337 17.3024 48.2271C17.3024 47.5206 16.7298 46.9478 16.0229 46.9478Z" fill="#00A8DE"/>
<path d="M12.6111 39.2715H1.77938C1.07266 39.2715 0.5 39.8443 0.5 40.5509C0.5 41.2574 1.07266 41.8302 1.77938 41.8302H12.6111C13.3179 41.8302 13.8905 41.2574 13.8905 40.5509C13.8905 39.8443 13.3179 39.2715 12.6111 39.2715Z" fill="#00A8DE"/>
<path d="M12.6111 57.1826H11.5618C10.8551 57.1826 10.2825 57.7554 10.2825 58.462C10.2825 59.1686 10.8551 59.7414 11.5618 59.7414H12.6111C13.3178 59.7414 13.8905 59.1686 13.8905 58.462C13.8905 57.7556 13.3178 57.1826 12.6111 57.1826Z" fill="#00A8DE"/>
<path d="M7.29721 57.1826H1.77938C1.07266 57.1826 0.5 57.7554 0.5 58.462C0.5 59.1686 1.07266 59.7414 1.77938 59.7414H7.29721C8.00393 59.7414 8.57659 59.1686 8.57659 58.462C8.57659 57.7556 8.00378 57.1826 7.29721 57.1826Z" fill="#00A8DE"/>
<path d="M67.3396 24.8636H56.4953V22.5606C56.4953 21.8541 55.9226 21.2812 55.2159 21.2812H38.9402C38.2335 21.2812 37.6609 21.8541 37.6609 22.5606C37.6609 23.2672 38.2335 23.84 38.9402 23.84H53.9365V50.7925C53.9365 51.499 54.5092 52.0718 55.2159 52.0718C55.9226 52.0718 56.4953 51.499 56.4953 50.7925V27.4224H67.3396C73.1855 27.4224 77.9413 32.1777 77.9413 38.0227V59.6634H74.6885C74.0732 55.8014 70.7202 52.84 66.6875 52.84C62.655 52.84 59.3019 55.8014 58.6867 59.6634H56.4951V55.0572C56.4951 54.3506 55.9225 53.7778 55.2158 53.7778C54.509 53.7778 53.9364 54.3506 53.9364 55.0572V59.6634H40.3581C39.7427 55.8014 36.3898 52.84 32.3572 52.84C28.3247 52.84 24.9716 55.8014 24.3563 59.6634H21.6955V41.0046C21.6955 40.298 21.1228 39.7252 20.4161 39.7252C19.7094 39.7252 19.1367 40.298 19.1367 41.0046V60.9428C19.1367 61.6494 19.7094 62.2222 20.4161 62.2222H24.3563C24.9716 66.0842 28.3247 69.0457 32.3572 69.0457C36.3898 69.0457 39.7429 66.0842 40.3581 62.2222H58.6866C59.3019 66.0842 62.6549 69.0457 66.6874 69.0457C70.7199 69.0457 74.073 66.0842 74.6882 62.2222H79.2204C79.9271 62.2222 80.4998 61.6494 80.4998 60.9428V38.0227C80.5004 30.7668 74.5963 24.8636 67.3396 24.8636ZM32.3572 66.4869C29.3002 66.4869 26.8132 63.9999 26.8132 60.9428C26.8132 57.8858 29.3002 55.3987 32.3572 55.3987C35.4143 55.3987 37.9013 57.8858 37.9013 60.9428C37.9013 64 35.4143 66.4869 32.3572 66.4869ZM66.6878 66.4869C63.6314 66.4869 61.145 64.0011 61.1438 60.945C61.1438 60.9444 61.1439 60.9434 61.1439 60.9428C61.1439 60.9422 61.1438 60.9413 61.1438 60.9406C61.145 57.8845 63.6314 55.3987 66.6878 55.3987C69.7449 55.3987 72.2319 57.8858 72.2319 60.9428C72.2319 64 69.7449 66.4869 66.6878 66.4869Z" fill="#00A8DE"/>
<path d="M75.3827 38.0229C75.3827 33.5888 71.7746 29.9814 67.3395 29.9814H60.3336C59.6269 29.9814 59.0542 30.5543 59.0542 31.2608V43.2873C59.0542 43.9938 59.6269 44.5667 60.3336 44.5667H74.1036C74.8104 44.5667 75.383 43.9938 75.383 43.2873V38.0229H75.3827ZM61.6128 42.0081V32.5405H67.3394C70.3636 32.5405 72.8238 35.0001 72.8238 38.0232V42.0081H61.6128Z" fill="#00A8DE"/>
<path d="M32.357 57.6445C30.5383 57.6445 29.0586 59.1242 29.0586 60.943C29.0586 62.7617 30.5383 64.2414 32.357 64.2414C34.1758 64.2414 35.6555 62.7617 35.6555 60.943C35.6555 59.1242 34.1758 57.6445 32.357 57.6445ZM32.357 61.6825C31.9492 61.6825 31.6174 61.3508 31.6174 60.9428C31.6174 60.535 31.9491 60.2031 32.357 60.2031C32.7649 60.2031 33.0967 60.5349 33.0967 60.9428C33.0967 61.3508 32.7649 61.6825 32.357 61.6825Z" fill="#00A8DE"/>
<path d="M66.6879 57.6445C64.8691 57.6445 63.3894 59.1242 63.3894 60.943C63.3894 62.7617 64.8691 64.2414 66.6879 64.2414C68.5066 64.2414 69.9863 62.7617 69.9863 60.943C69.9863 59.1242 68.5066 57.6445 66.6879 57.6445ZM66.6879 61.6825C66.28 61.6825 65.9482 61.3508 65.9482 60.9428C65.9482 60.535 66.2799 60.2031 66.6879 60.2031C67.0957 60.2031 67.4275 60.5349 67.4275 60.9428C67.4274 61.3508 67.0957 61.6825 66.6879 61.6825Z" fill="#00A8DE"/>
<path d="M74.1034 48.064C73.3966 48.064 72.824 48.6368 72.824 49.3433V52.5844C72.824 53.291 73.3966 53.8638 74.1034 53.8638C74.8101 53.8638 75.3827 53.291 75.3827 52.5844V49.3433C75.3827 48.6368 74.8099 48.064 74.1034 48.064Z" fill="#00A8DE"/>
<path d="M22.4973 10.9541C20.7715 10.9541 19.0892 11.273 17.4968 11.9016C16.8395 12.1611 16.5173 12.9043 16.7768 13.5615C17.0363 14.2188 17.7796 14.5408 18.4367 14.2815C19.7282 13.7715 21.0945 13.5129 22.4973 13.5129C28.5969 13.5129 33.5592 18.4752 33.5592 24.5748C33.5592 30.6743 28.5969 35.6367 22.4973 35.6367C16.3977 35.6367 11.4354 30.6743 11.4354 24.5748C11.4354 21.4721 12.7509 18.4927 15.0443 16.4002C15.5665 15.924 15.6034 15.1149 15.1273 14.5929C14.6509 14.0708 13.8415 14.0338 13.3198 14.5099C10.496 17.0862 8.87646 20.7546 8.87646 24.5748C8.87662 32.0854 14.987 38.1956 22.4973 38.1956C30.0078 38.1956 36.118 32.0853 36.118 24.5749C36.118 17.0644 30.0078 10.9541 22.4973 10.9541Z" fill="#00A8DE"/>
<path d="M25.6569 23.2952H23.7765V17.4517C23.7765 16.7452 23.2039 16.1724 22.4972 16.1724C21.7904 16.1724 21.2178 16.7452 21.2178 17.4517V24.5746C21.2178 25.2811 21.7904 25.854 22.4972 25.854H25.657C26.3637 25.854 26.9364 25.2811 26.9364 24.5746C26.9364 23.868 26.3636 23.2952 25.6569 23.2952Z" fill="#00A8DE"/>
</g>
<defs>
<clipPath id="clip0_26_589">
<rect width="80" height="80" fill="white" transform="translate(0.5)"/>
</clipPath>
</defs>
</svg>
