<svg width="72" height="72" viewBox="0 0 72 72" fill="none" xmlns="http://www.w3.org/2000/svg">
<g clip-path="url(#clip0_26_564)">
<path d="M65.8096 64.0919L56.2776 41.0798C56.0348 40.4937 55.3627 40.2151 54.7764 40.458C54.1902 40.701 53.9117 41.373 54.1546 41.9591L62.7718 62.7627L54.9117 60.4852C54.3958 60.3355 53.8447 60.5638 53.5857 61.0346L49.6381 68.2028L40.3919 45.8804C51.0637 43.8224 59.1498 34.4136 59.1498 23.1501C59.1499 10.3852 48.7649 0 35.9999 0C23.2349 0 12.8498 10.3852 12.8498 23.1501C12.8498 28.3205 14.5539 33.1001 17.4296 36.9578L6.19024 64.0919C6.02127 64.5001 6.10108 64.9688 6.39567 65.2979C6.6901 65.6269 7.14738 65.7581 7.57156 65.6352L16.8447 62.9481L21.5017 71.4053C21.7045 71.7734 22.0911 72 22.5079 72C22.529 72 22.5503 71.9994 22.5716 71.9983C23.0127 71.9738 23.4005 71.6988 23.5697 71.2907L32.4756 49.7898C32.7184 49.2036 32.4401 48.5315 31.8538 48.2887C31.2675 48.0459 30.5955 48.3243 30.3527 48.9105L22.3614 68.2028L18.4142 61.0346C18.155 60.5638 17.6036 60.3355 17.088 60.4852L9.22802 62.7627L19.0931 38.9462C23.3209 43.4684 29.3355 46.3001 35.9999 46.3001C36.6879 46.3001 37.3684 46.2681 38.0412 46.2091L48.4303 71.2907C48.5993 71.6988 48.9873 71.9738 49.4282 71.9982C49.4497 71.9994 49.4708 72 49.4921 72C49.9089 72 50.2954 71.7734 50.4981 71.4053L55.1553 62.9481L64.4284 65.6352C64.8529 65.7582 65.3097 65.6269 65.6043 65.2979C65.8989 64.9688 65.9786 64.5001 65.8096 64.0919ZM15.1476 23.1501C15.1476 11.6522 24.502 2.29787 35.9999 2.29787C47.4979 2.29787 56.852 11.6522 56.852 23.1501C56.852 34.6481 47.4979 44.0023 35.9999 44.0023C24.502 44.0023 15.1476 34.6481 15.1476 23.1501Z" fill="#00A8DE"/>
<path d="M49.2753 18.8365C49.1431 18.4293 48.7951 18.1294 48.3727 18.0584L40.6416 16.7611L37.0188 9.80938C36.8209 9.42962 36.4282 9.19141 35.9999 9.19141C35.5717 9.19141 35.179 9.42962 34.981 9.80938L31.3581 16.7611L23.6271 18.0584C23.2048 18.1292 22.8569 18.4292 22.7245 18.8365C22.5921 19.2438 22.6972 19.6908 22.9973 19.9965L28.4892 25.5903L27.3342 33.3439C27.2711 33.7675 27.4488 34.1909 27.7953 34.4427C28.1415 34.6943 28.5994 34.7324 28.9827 34.5417L35.9999 31.0471L43.017 34.5417C43.1792 34.6224 43.3545 34.6623 43.5291 34.6623C43.7676 34.6623 44.0046 34.5881 44.2045 34.4429C44.5511 34.191 44.7288 33.7676 44.6656 33.344L43.5107 25.5904L49.0026 19.9965C49.3026 19.6908 49.4077 19.2438 49.2753 18.8365ZM41.4701 24.3888C41.2176 24.646 41.1004 25.0066 41.1536 25.3629L42.0681 31.5019L36.5122 28.7351C36.3507 28.6548 36.1755 28.6146 35.9999 28.6146C35.8245 28.6146 35.649 28.6547 35.4878 28.7351L29.9319 31.5019L30.8464 25.3629C30.8996 25.0066 30.7824 24.6458 30.5299 24.3888L26.1816 19.9597L32.3026 18.9324C32.658 18.8728 32.9649 18.6499 33.1314 18.3304L35.9999 12.8263L38.8684 18.3305C39.0351 18.6501 39.3418 18.873 39.6972 18.9325L45.8184 19.9599L41.4701 24.3888Z" fill="#00A8DE"/>
<path d="M53.4044 24.309C52.7752 24.2249 52.1977 24.6679 52.1145 25.2971C51.0487 33.3407 44.121 39.4066 36 39.4066C27.0361 39.4066 19.7434 32.1141 19.7434 23.1501C19.7434 14.1861 27.0361 6.89358 36 6.89358C44.1211 6.89358 51.0487 12.9593 52.1145 21.0031C52.1977 21.6323 52.7763 22.0756 53.4044 21.9912C54.0332 21.9079 54.4758 21.3303 54.3923 20.7013C53.1759 11.5197 45.269 4.5957 36 4.5957C25.7691 4.5957 17.4456 12.9191 17.4456 23.1501C17.4456 33.3812 25.7691 41.7043 36 41.7043C45.269 41.7043 53.1759 34.7804 54.3924 25.5987C54.4758 24.9699 54.0334 24.3923 53.4044 24.309Z" fill="#00A8DE"/>
</g>
<defs>
<clipPath id="clip0_26_564">
<rect width="72" height="72" fill="white"/>
</clipPath>
</defs>
</svg>
