<svg width="66" height="65" viewBox="0 0 66 65" fill="none" xmlns="http://www.w3.org/2000/svg">
<g clip-path="url(#clip0_26_569)">
<path d="M64.2107 45.595H51.119L42.3532 41.8763C42.2275 41.8228 42.0925 41.7954 41.9557 41.7954H25.9432C23.1372 41.7954 20.8546 44.0782 20.8546 46.8841V49.0552C20.8546 49.5543 20.9268 50.037 21.0614 50.4931L8.53209 45.075C5.99061 43.976 3.0797 45.0792 1.90462 47.586L1.28026 48.9178C0.693482 50.1696 0.638003 51.5717 1.12385 52.8661C1.60983 54.1605 2.57442 55.18 3.8404 55.7363L13.0492 59.7841C13.5636 60.0106 14.1643 59.7765 14.3905 59.2618C14.6167 58.7472 14.3827 58.1468 13.8682 57.9205L4.65951 53.8727C3.89994 53.539 3.32129 52.9273 3.02942 52.1507C2.73807 51.3742 2.77133 50.5329 3.12337 49.7817L3.74773 48.4499C4.4527 46.9457 6.1992 46.2841 7.72429 46.9432L24.1824 54.0603C24.3099 54.1153 24.4475 54.1438 24.5864 54.1438H25.9434H40.056C40.6182 54.1438 41.0738 53.6883 41.0738 53.126C41.0738 52.5639 40.6183 52.1082 40.056 52.1082H25.9432C24.2597 52.1082 22.89 50.7385 22.89 49.055V46.8838C22.89 45.2003 24.2597 43.8306 25.9432 43.8306H41.7488L50.5146 47.5493C50.6402 47.6028 50.7753 47.6302 50.912 47.6302H63.1929V57.3269L49.5406 62.889C49.4179 62.9389 49.2887 62.9643 49.1564 62.9643H25.5569C25.415 62.9643 25.2771 62.9353 25.1474 62.8782L17.1254 59.352C16.6106 59.1259 16.0104 59.3598 15.784 59.8742C15.5578 60.3888 15.7918 60.9894 16.3062 61.2156L24.3283 64.7417C24.7179 64.913 25.1312 64.9997 25.5569 64.9997H49.1564C49.553 64.9997 49.9405 64.9237 50.3084 64.774L64.5947 58.9535C64.9778 58.7975 65.2285 58.4249 65.2285 58.011V46.6123C65.2285 46.0506 64.7728 45.595 64.2107 45.595Z" fill="#00A8DE"/>
<path d="M44.4434 24.635C44.2965 24.0924 43.738 23.7716 43.1952 23.9185C42.6527 24.0652 42.3319 24.6241 42.4787 25.1667C42.7172 26.0484 42.8381 26.9633 42.8381 27.8861C42.8381 33.6103 38.1813 38.2671 32.4571 38.2671C26.7329 38.2671 22.0761 33.6103 22.0761 27.8861C22.0761 22.1619 26.7329 17.5052 32.4571 17.5052C35.849 17.5052 39.0344 19.1685 40.9779 21.9549C41.2994 22.4157 41.9336 22.5293 42.3949 22.2073C42.8558 21.8857 42.9688 21.2513 42.6472 20.7903C40.3234 17.4587 36.5139 15.4697 32.4571 15.4697C25.6106 15.4697 20.0405 21.0398 20.0405 27.8863C20.0405 34.7327 25.6106 40.3028 32.4571 40.3028C39.3035 40.3028 44.8736 34.7327 44.8736 27.8863C44.8738 26.7838 44.729 25.69 44.4434 24.635Z" fill="#00A8DE"/>
<path d="M64.345 31.7625C63.654 31.6706 61.9129 31.286 60.6696 29.7009C59.7862 28.5739 59.5743 27.3516 59.5265 26.7234C59.4863 26.1929 59.0439 25.7827 58.5117 25.7827C57.9795 25.7827 57.537 26.1926 57.4968 26.7234C57.4491 27.3517 57.2371 28.574 56.3537 29.7009C55.1105 31.286 53.3692 31.6707 52.6783 31.7625C52.1724 31.8296 51.7944 32.261 51.7944 32.7714C51.7944 33.2817 52.1724 33.713 52.6783 33.7803C53.3693 33.8722 55.1105 34.2567 56.3537 35.8419C57.2371 36.9688 57.4491 38.1911 57.4968 38.8193C57.537 39.3498 57.9795 39.76 58.5117 39.76C59.0439 39.76 59.4863 39.3501 59.5265 38.8193C59.5743 38.191 59.7863 36.9688 60.6695 35.842C61.9129 34.2566 63.654 33.8721 64.345 33.7803C64.851 33.7131 65.2289 33.2817 65.2289 32.7714C65.2289 32.261 64.851 31.8298 64.345 31.7625ZM59.0676 34.586C58.856 34.8561 58.6716 35.1291 58.5115 35.4012C58.3513 35.129 58.1671 34.8559 57.9554 34.5859C57.3167 33.7715 56.5851 33.1885 55.8709 32.7714C56.5854 32.3542 57.3167 31.7712 57.9554 30.9568C58.1672 30.6867 58.3514 30.4136 58.5115 30.1415C58.6718 30.4137 58.856 30.6868 59.0677 30.9568C59.7064 31.7714 60.4379 32.3543 61.1522 32.7714C60.4377 33.1885 59.7063 33.7716 59.0676 34.586Z" fill="#00A8DE"/>
<path d="M38.8331 5.97976C38.1421 5.88784 36.4009 5.5033 35.1576 3.91816C34.2743 2.7912 34.0623 1.56889 34.0146 0.940724C33.9744 0.410059 33.532 0 32.9998 0C32.4676 0 32.0252 0.409932 31.985 0.940724C31.9372 1.56902 31.7252 2.79132 30.8419 3.91816C29.5986 5.5033 27.8573 5.88797 27.1664 5.97976C26.6607 6.04704 26.2827 6.4783 26.2827 6.98866C26.2827 7.49901 26.6607 7.93027 27.1666 7.99755C27.8576 8.08947 29.5987 8.47401 30.842 10.0591C31.7253 11.1861 31.9373 12.4084 31.9851 13.0366C32.0253 13.5671 32.4678 13.9773 32.9999 13.9773C33.5321 13.9773 33.9746 13.5674 34.0148 13.0366C34.0625 12.4083 34.2746 11.1861 35.1578 10.0593C36.4012 8.47388 38.1423 8.08934 38.8333 7.99755C39.339 7.93027 39.7169 7.49901 39.7169 6.98866C39.7169 6.4783 39.339 6.04704 38.8331 5.97976ZM33.5559 8.80333C33.3442 9.07336 33.1599 9.34643 32.9998 9.61849C32.8396 9.34631 32.6554 9.07323 32.4436 8.8032C31.8049 7.98879 31.0734 7.40582 30.3592 6.98866C31.0737 6.57149 31.8049 5.98852 32.4436 5.17411C32.6555 4.90395 32.8397 4.63088 32.9998 4.35882C33.16 4.631 33.3442 4.90408 33.556 5.17411C34.1947 5.98864 34.9262 6.57161 35.6404 6.98866C34.926 7.40582 34.1946 7.98892 33.5559 8.80333Z" fill="#00A8DE"/>
<path d="M13.3218 31.7625C12.631 31.6706 10.8897 31.2859 9.64642 29.7009C8.76295 28.5739 8.55107 27.3516 8.50333 26.7234C8.46284 26.1928 8.02053 25.7827 7.48834 25.7827C6.95615 25.7827 6.51372 26.1926 6.47348 26.7234C6.42574 27.3517 6.21373 28.574 5.33052 29.7007C4.08713 31.2861 2.34597 31.6707 1.65496 31.7625C1.14918 31.8298 0.77124 32.261 0.77124 32.7714C0.77124 33.2817 1.14918 33.713 1.65509 33.7803C2.3461 33.8722 4.08726 34.2567 5.33052 35.8419C6.21386 36.9688 6.42587 38.1911 6.4736 38.8193C6.51398 39.3498 6.95628 39.76 7.48847 39.76C8.02066 39.76 8.46309 39.3501 8.50333 38.8193C8.55107 38.191 8.76308 36.9688 9.6463 35.842C10.8897 34.2566 12.6308 33.8721 13.3218 33.7803C13.8278 33.7131 14.2057 33.2817 14.2057 32.7714C14.2057 32.261 13.8278 31.8298 13.3218 31.7625ZM8.0444 34.586C7.83277 34.8561 7.64843 35.1291 7.48834 35.4012C7.32813 35.129 7.14392 34.8559 6.93216 34.5859C6.29346 33.7715 5.56195 33.1885 4.84771 32.7714C5.56221 32.3542 6.29358 31.7711 6.93229 30.9567C7.14392 30.6867 7.32825 30.4137 7.48834 30.1415C7.64843 30.4137 7.83277 30.6867 8.0444 30.9567C8.0444 30.9567 8.0444 30.9568 8.04453 30.9568C8.68323 31.7714 9.41473 32.3543 10.129 32.7714C9.41448 33.1885 8.6831 33.7716 8.0444 34.586Z" fill="#00A8DE"/>
<path d="M33.8859 28.6388H28.4084C28.2554 28.6388 28.1088 28.578 28.0007 28.4699C27.8925 28.3618 27.8318 28.2151 27.8318 28.0622C27.8318 27.9093 27.8925 27.7626 28.0007 27.6545C28.1088 27.5464 28.2554 27.4856 28.4084 27.4856H29.5615V22.873C29.5615 22.7972 29.5764 22.7222 29.6053 22.6523C29.6343 22.5823 29.6768 22.5187 29.7303 22.4652C29.7839 22.4116 29.8474 22.3691 29.9174 22.3402C29.9874 22.3112 30.0624 22.2963 30.1381 22.2964H33.8859C34.7269 22.2964 35.5335 22.6305 36.1282 23.2252C36.723 23.8199 37.0571 24.6265 37.0571 25.4676C37.0571 26.3086 36.723 27.1152 36.1282 27.7099C35.5335 28.3047 34.7269 28.6388 33.8859 28.6388ZM30.7147 27.4856H33.8859C34.4211 27.4856 34.9344 27.273 35.3128 26.8945C35.6913 26.5161 35.9039 26.0028 35.9039 25.4676C35.9039 24.9324 35.6913 24.4191 35.3128 24.0406C34.9344 23.6622 34.4211 23.4495 33.8859 23.4495H30.7147V27.4856Z" fill="#00A8DE"/>
<path d="M30.1381 32.6745C30.0624 32.6745 29.9874 32.6596 29.9174 32.6307C29.8474 32.6017 29.7839 32.5593 29.7303 32.5057C29.6768 32.4522 29.6343 32.3886 29.6053 32.3186C29.5764 32.2486 29.5615 32.1736 29.5615 32.0979V27.4853C29.5615 27.3324 29.6223 27.1857 29.7304 27.0776C29.8385 26.9694 29.9852 26.9087 30.1381 26.9087C30.291 26.9087 30.4377 26.9694 30.5458 27.0776C30.6539 27.1857 30.7147 27.3324 30.7147 27.4853V32.0979C30.7147 32.1736 30.6998 32.2486 30.6709 32.3186C30.6419 32.3886 30.5995 32.4522 30.5459 32.5057C30.4924 32.5593 30.4288 32.6017 30.3588 32.6307C30.2888 32.6596 30.2138 32.6745 30.1381 32.6745Z" fill="#00A8DE"/>
<path d="M33.5976 30.9447H28.4084C28.2554 30.9447 28.1088 30.8839 28.0007 30.7758C27.8925 30.6677 27.8318 30.521 27.8318 30.3681C27.8318 30.2152 27.8925 30.0685 28.0007 29.9604C28.1088 29.8523 28.2554 29.7915 28.4084 29.7915H33.5976C33.7505 29.7915 33.8972 29.8523 34.0053 29.9604C34.1134 30.0685 34.1742 30.2152 34.1742 30.3681C34.1742 30.521 34.1134 30.6677 34.0053 30.7758C33.8972 30.8839 33.7505 30.9447 33.5976 30.9447Z" fill="#00A8DE"/>
</g>
<defs>
<clipPath id="clip0_26_569">
<rect width="65" height="65" fill="white" transform="translate(0.5)"/>
</clipPath>
</defs>
</svg>
