<svg width="41" height="29" viewBox="0 0 41 29" fill="none" xmlns="http://www.w3.org/2000/svg">
<path d="M0.257611 4.10096L18.0072 18.2384C18.1336 18.345 19.2741 19.2832 20.5 19.2832C21.7314 19.2832 22.8821 18.3798 23.0058 18.2794L40.7431 4.10024C40.9057 3.97043 41 3.77432 41 3.5666C41 1.6826 39.4673 0.149902 37.5833 0.149902H3.41669C1.5327 0.149902 0 1.6826 0 3.5666C0 3.77496 0.0949727 3.97107 0.257611 4.10096ZM3.41669 1.5166H37.5834C38.6084 1.5166 39.4605 2.27301 39.6102 3.25637L22.1495 17.2141C21.9063 17.4095 21.1348 17.9165 20.5 17.9165C19.8843 17.9165 19.1299 17.3958 18.8757 17.1826L1.38992 3.25565C1.54022 2.27237 2.39169 1.5166 3.41669 1.5166Z" fill="white"/>
<path d="M12.5609 16.013L2.99423 23.5296C2.6977 23.7626 2.64645 24.1924 2.8794 24.489C3.01401 24.6606 3.21421 24.7501 3.41649 24.7501C3.56479 24.7501 3.71374 24.7023 3.83882 24.6039L13.4055 17.0872C13.702 16.8541 13.7534 16.4244 13.5203 16.1277C13.2873 15.8305 12.8575 15.78 12.5609 16.013Z" fill="white"/>
<path d="M28.439 16.0128C28.1424 15.7797 27.7126 15.831 27.4796 16.1276C27.2465 16.4242 27.2978 16.854 27.5944 17.087L37.1611 24.6037C37.2862 24.7021 37.4351 24.7499 37.5827 24.7499C37.785 24.7499 37.9859 24.6604 38.1205 24.4889C38.3535 24.1923 38.3023 23.7625 38.0057 23.5295L28.439 16.0128Z" fill="white"/>
<path d="M40.3167 6.2998C39.9395 6.2998 39.6334 6.60594 39.6334 6.98311V25.4331C39.6334 26.5633 38.7136 27.4831 37.5834 27.4831H3.41669C2.28647 27.4831 1.36669 26.5633 1.36669 25.4331V6.98311C1.36669 6.60594 1.06055 6.2998 0.683387 6.2998C0.306219 6.2998 0 6.60594 0 6.98311V25.4331C0 27.3171 1.5327 28.8498 3.41669 28.8498H37.5834C39.4673 28.8498 41.0001 27.3171 41.0001 25.4331V6.98311C41 6.60594 40.6939 6.2998 40.3167 6.2998Z" fill="white"/>
</svg>