<svg width="25" height="24" viewBox="0 0 25 24" fill="none" xmlns="http://www.w3.org/2000/svg">
<path d="M11.3428 23.0541C11.6538 23.3775 12.0718 23.5577 12.5102 23.5577C12.9435 23.5577 13.3717 23.3722 13.6776 23.0541L22.8385 13.5267C24.2302 12.0793 24.9949 10.1548 25 8.1136C25 6.0671 24.2353 4.14255 22.8436 2.69516C21.4519 1.24777 19.6064 0.452498 17.6387 0.452498C15.7066 0.452498 13.8866 1.22126 12.5051 2.62093C11.1185 1.21596 9.29343 0.441895 7.35624 0.441895C5.39356 0.441895 3.54812 1.23716 2.1564 2.67925C0.764682 4.12665 0 6.0512 0 8.09769C0 10.1389 0.76978 12.0634 2.1615 13.5108L11.3428 23.0541ZM3.04343 3.60177C4.19555 2.40356 5.73002 1.74084 7.36134 1.74084C8.99266 1.74084 10.5322 2.40356 11.6894 3.60707L12.0667 3.9994C12.1839 4.12134 12.342 4.19027 12.5102 4.19027C12.6733 4.19027 12.8365 4.12134 12.9537 3.9994L13.3208 3.61767C14.478 2.41416 16.0124 1.75144 17.6489 1.75144C19.2802 1.75144 20.8146 2.41416 21.9668 3.61237C23.124 4.81588 23.7561 6.41172 23.7561 8.1083C23.7561 9.80487 23.1189 11.4007 21.9617 12.6042L12.7957 22.1369C12.6478 22.2906 12.3777 22.2906 12.2247 22.1369L3.04853 12.5936C1.89131 11.3901 1.25408 9.79427 1.25408 8.09769C1.25408 6.40112 1.89131 4.80528 3.04343 3.60177Z" fill="#00A8DE"/>
</svg>