<svg width="24" height="24" viewBox="0 0 24 24" fill="none" xmlns="http://www.w3.org/2000/svg">
<path d="M17.2673 15.0788L12.4919 11.7394V6.0001C12.4919 5.72961 12.2706 5.5083 12.0001 5.5083C11.7296 5.5083 11.5083 5.72961 11.5083 6.0001V12.0001C11.5083 12.1624 11.587 12.3099 11.7198 12.4034L16.7067 15.8903C16.7903 15.9493 16.8886 15.9788 16.987 15.9788C17.1394 15.9788 17.2919 15.905 17.3903 15.7624C17.5427 15.5411 17.4886 15.2362 17.2673 15.0788Z" fill="#00A8DE"/>
<path d="M20.4787 3.52131C18.2066 1.24918 15.1967 0 12 0C8.80328 0 5.79344 1.24918 3.52131 3.52131C1.24918 5.79344 0 8.80328 0 12C0 15.1967 1.24918 18.2066 3.52131 20.4787C5.79344 22.7508 8.80328 24 12 24C15.1967 24 18.2066 22.7508 20.4787 20.4787C22.7508 18.2066 24 15.1967 24 12C24 8.80328 22.7508 5.79344 20.4787 3.52131ZM12.4918 23.0066V21C12.4918 20.7295 12.2705 20.5082 12 20.5082C11.7295 20.5082 11.5082 20.7295 11.5082 21V23.0066C5.82295 22.7557 1.24426 18.177 0.993443 12.4918H3C3.27049 12.4918 3.4918 12.2705 3.4918 12C3.4918 11.7295 3.27049 11.5082 3 11.5082H0.993443C1.24426 5.82295 5.82295 1.24426 11.5082 0.993443V3C11.5082 3.27049 11.7295 3.4918 12 3.4918C12.2705 3.4918 12.4918 3.27049 12.4918 3V0.993443C18.177 1.24426 22.7557 5.82295 23.0066 11.5082H21C20.7295 11.5082 20.5082 11.7295 20.5082 12C20.5082 12.2705 20.7295 12.4918 21 12.4918H23.0066C22.7557 18.177 18.177 22.7557 12.4918 23.0066Z" fill="#00A8DE"/>
</svg>