<svg width="18" height="24" viewBox="0 0 18 24" fill="none" xmlns="http://www.w3.org/2000/svg">
<path d="M8.99994 0C4.10995 0 0.131592 3.97829 0.131592 8.86834C0.131592 13.6027 8.21639 23.38 8.56055 23.7939C8.66912 23.9244 8.83011 24 8.99994 24C9.16969 24 9.33076 23.9245 9.43933 23.7939C9.78356 23.38 17.8683 13.6027 17.8683 8.86834C17.8683 3.97829 13.89 0 8.99994 0ZM8.99994 22.5218C8.28306 21.6266 6.79361 19.7194 5.31971 17.5391C2.67331 13.6245 1.27445 10.6262 1.27445 8.86834C1.27445 4.60846 4.74013 1.14286 8.99994 1.14286C13.2597 1.14286 16.7254 4.60846 16.7254 8.86834C16.7254 10.6261 15.3266 13.6245 12.6802 17.5391C11.2062 19.7194 9.71681 21.6266 8.99994 22.5218Z" fill="#00A8DE"/>
<path d="M11.9071 16.3016C11.6457 16.1249 11.2904 16.1938 11.1138 16.4553C10.3426 17.5967 9.4788 18.7931 8.54623 20.0111C8.35438 20.2617 8.40192 20.6203 8.65251 20.8121C8.75613 20.8915 8.87827 20.9299 8.99949 20.9299C9.17122 20.9299 9.34112 20.8527 9.45358 20.7059C10.3999 19.47 11.277 18.2552 12.0607 17.095C12.2374 16.8335 12.1687 16.4783 11.9071 16.3016Z" fill="#00A8DE"/>
<path d="M8.99992 4.38086C6.41623 4.38086 4.31421 6.48288 4.31421 9.06657C4.31421 11.6503 6.41623 13.7523 8.99992 13.7523C11.5836 13.7523 13.6856 11.6503 13.6856 9.06657C13.6856 6.48288 11.5836 4.38086 8.99992 4.38086ZM8.99992 12.6094C7.0464 12.6094 5.45707 11.0201 5.45707 9.06657C5.45707 7.11305 7.0464 5.52372 8.99992 5.52372C10.9535 5.52372 12.5428 7.11305 12.5428 9.06657C12.5428 11.0201 10.9535 12.6094 8.99992 12.6094Z" fill="#00A8DE"/>
</svg>