<svg width="15" height="23" viewBox="0 0 15 23" fill="none" xmlns="http://www.w3.org/2000/svg">
<path d="M0.749268 21.3545C0.749268 22.2618 1.43652 23 2.28129 23H12.7189C13.5637 23 14.2509 22.2618 14.2509 21.3545V1.64546C14.2509 0.738154 13.5637 0 12.7189 0H2.28129C1.43652 0 0.749268 0.738154 0.749268 1.64546V21.3545ZM1.6656 3.57586H13.3346V17.4295H1.6656V3.57586ZM1.6656 1.64546C1.6656 1.24342 1.94178 0.916335 2.28129 0.916335H12.7189C13.0584 0.916335 13.3346 1.24342 13.3346 1.64546V2.65952H1.6656V1.64546ZM13.3346 21.3545C13.3346 21.7566 13.0584 22.0837 12.7189 22.0837H2.28129C1.94178 22.0837 1.6656 21.7566 1.6656 21.3545V18.3458H13.3346V21.3545Z" fill="#00A8DE"/>
<path d="M7.49998 21.4804C8.21091 21.4804 8.78926 20.9021 8.78926 20.1911C8.78926 19.4802 8.21091 18.9019 7.49998 18.9019C6.78908 18.9019 6.21069 19.4802 6.21069 20.1911C6.21069 20.9021 6.78908 21.4804 7.49998 21.4804ZM7.49998 19.8182C7.7056 19.8182 7.87292 19.9855 7.87292 20.1912C7.87292 20.3969 7.70565 20.5641 7.49998 20.5641C7.2943 20.5641 7.12703 20.3969 7.12703 20.1912C7.12703 19.9855 7.29435 19.8182 7.49998 19.8182Z" fill="#00A8DE"/>
<path d="M7.92753 1.37744H7.07267C6.81962 1.37744 6.6145 1.58261 6.6145 1.83561C6.6145 2.08861 6.81962 2.29378 7.07267 2.29378H7.92753C8.18053 2.29378 8.3857 2.08861 8.3857 1.83561C8.3857 1.58261 8.18057 1.37744 7.92753 1.37744Z" fill="#00A8DE"/>
<path d="M2.98844 7.59863C2.73539 7.59863 2.53027 7.8038 2.53027 8.0568V16.1304C2.53027 16.3834 2.73539 16.5886 2.98844 16.5886C3.24149 16.5886 3.44661 16.3834 3.44661 16.1304V8.0568C3.44661 7.80375 3.24149 7.59863 2.98844 7.59863Z" fill="#00A8DE"/>
<path d="M2.98844 4.51172C2.73539 4.51172 2.53027 4.71689 2.53027 4.96989V6.20469C2.53027 6.45769 2.73539 6.66286 2.98844 6.66286C3.24149 6.66286 3.44661 6.45769 3.44661 6.20469V4.96989C3.44661 4.71684 3.24149 4.51172 2.98844 4.51172Z" fill="#00A8DE"/>
</svg>