<svg width="18" height="22" viewBox="0 0 18 22" fill="none" xmlns="http://www.w3.org/2000/svg">
<path d="M1.04254 0H10.6401C10.7645 0 10.8833 0.0493878 10.9711 0.137163L17.2884 6.45449C17.3762 6.54226 17.4255 6.66133 17.4255 6.78543V21.5319C17.4255 21.7905 17.2162 22 16.9575 22H1.04258C0.783882 22 0.574522 21.7905 0.574522 21.5319V0.468106C0.574478 0.209584 0.783836 0 1.04254 0ZM11.1082 1.5981V6.31732H15.8274L13.2996 3.78952L11.1082 1.5981ZM1.5106 21.0638H16.4893V7.25349H10.6401C10.3814 7.25349 10.172 7.04391 10.172 6.78538V0.936167H1.5106V21.0638Z" fill="#00A8DE"/>
</svg>