<svg width="31" height="31" viewBox="0 0 31 31" fill="none" xmlns="http://www.w3.org/2000/svg">
<path d="M28.124 18.2307L30.334 7.45332H8.55527L7.79844 3.86895L1.23516 0.666016L0.666016 1.79824L6.66016 4.69238L9.6875 19.151H27.1855C27.1855 19.151 28.9111 20.2348 28.2451 21.6031C27.9484 22.027 27.4883 22.5477 26.6648 22.5477H9.25156V23.7949H26.6709C27.8697 23.7949 28.8809 23.1652 29.45 22.1602C30.5641 20.0773 28.124 18.2307 28.124 18.2307ZM10.7652 17.8855L8.80957 8.70664H28.8203L26.9252 17.8855H10.7652Z" fill="#00A8DE"/>
<path d="M12.8481 25.5566C11.5221 25.5566 10.4504 26.6223 10.4504 27.9422C10.4504 29.2621 11.5221 30.3277 12.8481 30.3277C14.1741 30.3277 15.2458 29.2621 15.2458 27.9422C15.2458 26.6223 14.1741 25.5566 12.8481 25.5566ZM12.8481 29.0744C12.2184 29.0744 11.7098 28.5719 11.7098 27.9422C11.7098 27.3125 12.2124 26.81 12.8481 26.81C13.4838 26.81 13.9864 27.3125 13.9864 27.9422C13.9864 28.5719 13.4778 29.0744 12.8481 29.0744Z" fill="#00A8DE"/>
<path d="M25.7263 25.5566C24.4003 25.5566 23.3286 26.6223 23.3286 27.9422C23.3286 29.2621 24.4003 30.3338 25.7263 30.3338C27.0523 30.3338 28.1905 29.2682 28.1239 27.9482C28.1239 26.6283 27.0523 25.5566 25.7263 25.5566ZM26.8646 27.9482C26.8646 28.5779 26.362 29.0805 25.7263 29.0805C25.0905 29.0805 24.588 28.5779 24.588 27.9482C24.588 27.3186 25.0905 26.816 25.7263 26.816C26.362 26.816 26.9251 27.3186 26.8646 27.9482Z" fill="#00A8DE"/>
</svg>