<svg width="26" height="20" viewBox="0 0 26 20" fill="none" xmlns="http://www.w3.org/2000/svg">
<path d="M0.163363 3.40545L11.4192 12.3707C11.4994 12.4383 12.2226 13.0332 13 13.0332C13.7809 13.0332 14.5106 12.4604 14.589 12.3967L25.8371 3.40499C25.9402 3.32268 26 3.19831 26 3.06659C26 1.87186 25.028 0.899902 23.8333 0.899902H2.16668C0.971953 0.899902 0 1.87186 0 3.06659C0 3.19872 0.0602266 3.32308 0.163363 3.40545ZM2.16668 1.76659H23.8334C24.4834 1.76659 25.0237 2.24627 25.1186 2.86986L14.046 11.7211C13.8918 11.845 13.4025 12.1665 13 12.1665C12.6095 12.1665 12.1312 11.8364 11.97 11.7011L0.88141 2.8694C0.976727 2.24586 1.51668 1.76659 2.16668 1.76659Z" fill="#00A8DE"/>
<path d="M7.96549 10.9595L1.89881 15.7261C1.71076 15.8739 1.67826 16.1464 1.82599 16.3345C1.91135 16.4433 2.0383 16.5001 2.16658 16.5001C2.26062 16.5001 2.35508 16.4697 2.4344 16.4073L8.50108 11.6406C8.68912 11.4929 8.72167 11.2203 8.5739 11.0322C8.42613 10.8437 8.15353 10.8117 7.96549 10.9595Z" fill="#00A8DE"/>
<path d="M18.0345 10.9593C17.8465 10.8116 17.5739 10.844 17.4261 11.0321C17.2783 11.2202 17.3108 11.4928 17.4989 11.6406L23.5656 16.4072C23.6449 16.4697 23.7394 16.5 23.833 16.5C23.9613 16.5 24.0887 16.4432 24.174 16.3344C24.3218 16.1464 24.2893 15.8738 24.1012 15.726L18.0345 10.9593Z" fill="#00A8DE"/>
<path d="M25.5667 4.7998C25.3275 4.7998 25.1334 4.99394 25.1334 5.23312V16.9331C25.1334 17.6498 24.5501 18.2331 23.8334 18.2331H2.16668C1.44996 18.2331 0.866684 17.6498 0.866684 16.9331V5.23312C0.866684 4.99394 0.672547 4.7998 0.433367 4.7998C0.194188 4.7998 0 4.99394 0 5.23312V16.9331C0 18.1279 0.971953 19.0998 2.16668 19.0998H23.8334C25.028 19.0998 26 18.1279 26 16.9331V5.23312C26 4.99394 25.8059 4.7998 25.5667 4.7998Z" fill="#00A8DE"/>
</svg>